<mxfile host="Electron" modified="2024-04-21T20:36:06.687Z" agent="Mozilla/5.0 (Windows NT 10.0; Win64; x64) AppleWebKit/537.36 (KHTML, like Gecko) draw.io/24.2.5 Chrome/120.0.6099.109 Electron/28.1.0 Safari/537.36" etag="Jdfa_BFqeq9GT1vjUzvF" version="24.2.5" type="device">
  <diagram name="Page-1" id="VAImFsNHCDlEAU3QEwae">
    <mxGraphModel dx="1020" dy="504" grid="1" gridSize="10" guides="1" tooltips="1" connect="1" arrows="1" fold="1" page="1" pageScale="1" pageWidth="850" pageHeight="1100" math="0" shadow="0">
      <root>
        <mxCell id="0" />
        <mxCell id="1" parent="0" />
        <mxCell id="tncyW3sNxZzBNjfjy4zj-1" value="Tang Nano 9K board" style="rounded=0;whiteSpace=wrap;html=1;fillColor=#FFE599;" vertex="1" parent="1">
          <mxGeometry x="180" y="80" width="120" height="280" as="geometry" />
        </mxCell>
        <mxCell id="tncyW3sNxZzBNjfjy4zj-2" value="4.3&#39;&#39; screen" style="rounded=0;whiteSpace=wrap;html=1;fillColor=#7EA6E0;" vertex="1" parent="1">
          <mxGeometry x="440" y="80" width="260" height="90" as="geometry" />
        </mxCell>
        <mxCell id="tncyW3sNxZzBNjfjy4zj-3" value="OV7670 Camera sensor" style="rounded=0;whiteSpace=wrap;html=1;fillColor=#B9E0A5;" vertex="1" parent="1">
          <mxGeometry x="485" y="230" width="170" height="130" as="geometry" />
        </mxCell>
        <mxCell id="tncyW3sNxZzBNjfjy4zj-4" value="" style="endArrow=none;html=1;rounded=0;entryX=0;entryY=0.5;entryDx=0;entryDy=0;" edge="1" parent="1" target="tncyW3sNxZzBNjfjy4zj-2">
          <mxGeometry width="50" height="50" relative="1" as="geometry">
            <mxPoint x="300" y="125" as="sourcePoint" />
            <mxPoint x="450" y="240" as="targetPoint" />
          </mxGeometry>
        </mxCell>
        <mxCell id="tncyW3sNxZzBNjfjy4zj-17" value="Screen parallel interface" style="edgeLabel;html=1;align=center;verticalAlign=middle;resizable=0;points=[];" vertex="1" connectable="0" parent="tncyW3sNxZzBNjfjy4zj-4">
          <mxGeometry x="0.1571" y="-5" relative="1" as="geometry">
            <mxPoint x="-11" y="-20" as="offset" />
          </mxGeometry>
        </mxCell>
        <mxCell id="tncyW3sNxZzBNjfjy4zj-7" value="" style="endArrow=none;html=1;rounded=0;exitX=1;exitY=0.651;exitDx=0;exitDy=0;exitPerimeter=0;entryX=0;entryY=0.25;entryDx=0;entryDy=0;" edge="1" parent="1" source="tncyW3sNxZzBNjfjy4zj-1" target="tncyW3sNxZzBNjfjy4zj-3">
          <mxGeometry width="50" height="50" relative="1" as="geometry">
            <mxPoint x="400" y="290" as="sourcePoint" />
            <mxPoint x="450" y="240" as="targetPoint" />
          </mxGeometry>
        </mxCell>
        <mxCell id="tncyW3sNxZzBNjfjy4zj-8" value="I2C Interface" style="edgeLabel;html=1;align=center;verticalAlign=middle;resizable=0;points=[];" vertex="1" connectable="0" parent="tncyW3sNxZzBNjfjy4zj-7">
          <mxGeometry x="-0.2" relative="1" as="geometry">
            <mxPoint x="16" y="-12" as="offset" />
          </mxGeometry>
        </mxCell>
        <mxCell id="tncyW3sNxZzBNjfjy4zj-13" value="" style="endArrow=none;html=1;rounded=0;exitX=0;exitY=0.75;exitDx=0;exitDy=0;" edge="1" parent="1" source="tncyW3sNxZzBNjfjy4zj-3">
          <mxGeometry width="50" height="50" relative="1" as="geometry">
            <mxPoint x="340" y="330" as="sourcePoint" />
            <mxPoint x="300" y="328" as="targetPoint" />
          </mxGeometry>
        </mxCell>
        <mxCell id="tncyW3sNxZzBNjfjy4zj-16" value="Parallel interface" style="edgeLabel;html=1;align=center;verticalAlign=middle;resizable=0;points=[];" vertex="1" connectable="0" parent="tncyW3sNxZzBNjfjy4zj-13">
          <mxGeometry x="0.0702" y="-2" relative="1" as="geometry">
            <mxPoint x="4" y="-6" as="offset" />
          </mxGeometry>
        </mxCell>
      </root>
    </mxGraphModel>
  </diagram>
</mxfile>
